<?xml version="1.0" standalone="no"?>
<!DOCTYPE svg PUBLIC "-//W3C//DTD SVG 20010904//EN"
 "http://www.w3.org/TR/2001/REC-SVG-20010904/DTD/svg10.dtd">
<svg version="1.0" xmlns="http://www.w3.org/2000/svg"
 width="843.000000pt" height="637.000000pt" viewBox="0 0 843.000000 637.000000"
 preserveAspectRatio="xMidYMid meet">

<g transform="translate(0.000000,637.000000) scale(0.100000,-0.100000)"
fill="#000000" stroke="none">
<path d="M4078 6253 c12 -2 30 -2 40 0 9 3 -1 5 -23 4 -22 0 -30 -2 -17 -4z"/>
<path d="M3894 6225 c-18 -13 -18 -14 4 -8 12 3 25 9 28 14 8 14 -10 11 -32
-6z"/>
<path d="M4308 6193 c7 -3 16 -2 19 1 4 3 -2 6 -13 5 -11 0 -14 -3 -6 -6z"/>
<path d="M4355 6180 c3 -5 10 -10 16 -10 5 0 9 5 9 10 0 6 -7 10 -16 10 -8 0
-12 -4 -9 -10z"/>
<path d="M3760 6170 c-9 -6 -10 -10 -3 -10 6 0 15 5 18 10 8 12 4 12 -15 0z"/>
<path d="M4400 6166 c0 -2 7 -7 16 -10 8 -3 12 -2 9 4 -6 10 -25 14 -25 6z"/>
<path d="M4500 6126 c0 -2 9 -6 20 -9 11 -3 18 -1 14 4 -5 9 -34 13 -34 5z"/>
<path d="M3600 6110 c-9 -6 -10 -10 -3 -10 6 0 15 5 18 10 8 12 4 12 -15 0z"/>
<path d="M4707 6049 c7 -7 15 -10 18 -7 3 3 -2 9 -12 12 -14 6 -15 5 -6 -5z"/>
<path d="M3295 5990 c-3 -6 1 -7 9 -4 18 7 21 14 7 14 -6 0 -13 -4 -16 -10z"/>
<path d="M4860 5990 c8 -5 20 -10 25 -10 6 0 3 5 -5 10 -8 5 -19 10 -25 10 -5
0 -3 -5 5 -10z"/>
<path d="M3105 5920 c-3 -5 -1 -10 4 -10 6 0 11 5 11 10 0 6 -2 10 -4 10 -3 0
-8 -4 -11 -10z"/>
<path d="M5057 5919 c7 -7 15 -10 18 -7 3 3 -2 9 -12 12 -14 6 -15 5 -6 -5z"/>
<path d="M3050 5900 c-13 -8 -13 -10 2 -10 9 0 20 5 23 10 8 13 -5 13 -25 0z"/>
<path d="M3904 5850 c-82 -16 -264 -82 -459 -165 -27 -12 -136 -55 -785 -312
-371 -147 -428 -177 -507 -266 -47 -55 -357 -541 -392 -617 -22 -48 -26 -73
-31 -200 -3 -80 -3 -158 2 -174 4 -16 8 -459 8 -984 0 -525 3 -958 6 -963 3
-5 557 -9 1305 -9 1279 0 1299 0 1299 19 0 11 5 23 10 26 6 3 10 15 10 26 0
18 -6 19 -74 17 -41 -2 -78 1 -82 5 -16 15 21 27 88 27 37 0 70 4 73 10 3 5
-6 21 -22 34 -36 32 -22 45 22 21 20 -10 38 -16 41 -13 3 4 1 23 -5 45 -6 21
-11 94 -11 163 0 69 -4 130 -8 135 -4 6 -41 32 -82 57 -41 26 -87 58 -102 72
-34 33 -53 34 -43 4 50 -166 60 -321 29 -428 -9 -30 -19 -89 -23 -130 l-6 -75
-359 -3 c-218 -1 -363 1 -369 7 -6 6 5 26 29 54 33 38 43 60 67 154 27 110 27
111 27 466 l0 357 -38 0 c-51 0 -101 16 -118 37 -35 44 -64 94 -102 182 -23
51 -64 122 -92 157 -58 74 -79 109 -105 179 -22 60 -33 78 -106 175 -103 137
-241 260 -292 260 -14 0 -78 -9 -142 -20 -73 -13 -163 -20 -239 -20 -92 0
-131 -4 -155 -16 -66 -33 -165 15 -205 100 -20 42 -10 73 39 127 19 21 78 105
131 186 53 81 105 156 115 165 10 10 21 35 25 55 9 52 28 87 61 112 16 12 52
40 80 61 34 26 61 57 75 87 13 26 31 51 40 57 26 16 81 -16 114 -65 21 -30 49
-53 96 -78 62 -33 70 -34 101 -23 48 17 148 15 175 -4 12 -8 22 -26 22 -39 0
-26 5 -28 90 -44 121 -22 182 -22 250 -2 259 78 237 73 360 68 63 -3 183 -12
265 -20 83 -9 229 -21 325 -27 96 -6 225 -18 285 -26 61 -8 144 -19 185 -24
241 -32 368 -43 560 -50 l215 -7 125 -43 c213 -72 292 -120 333 -202 43 -85
51 -158 36 -340 -8 -108 -10 -247 -6 -445 9 -397 15 -469 40 -523 19 -42 21
-64 21 -285 l1 -240 38 -150 c21 -82 47 -168 58 -189 21 -40 18 -52 -16 -58
-16 -3 -21 -13 -25 -56 -3 -29 -4 -55 -1 -58 9 -9 193 -4 212 7 20 10 20 22
14 1122 -4 708 -10 1127 -17 1152 -14 53 -27 78 -120 225 -177 278 -269 415
-305 453 -39 40 -123 99 -183 129 -36 18 -469 191 -750 300 -85 33 -279 108
-430 168 -151 60 -310 116 -352 124 -82 17 -272 20 -344 6z"/>
<path d="M5407 5789 c7 -7 15 -10 18 -7 3 3 -2 9 -12 12 -14 6 -15 5 -6 -5z"/>
<path d="M5695 5680 c3 -5 14 -10 23 -10 15 0 15 2 2 10 -20 13 -33 13 -25 0z"/>
<path d="M2338 5623 c7 -3 16 -2 19 1 4 3 -2 6 -13 5 -11 0 -14 -3 -6 -6z"/>
<path d="M2115 5540 c-3 -6 1 -7 9 -4 18 7 21 14 7 14 -6 0 -13 -4 -16 -10z"/>
<path d="M6058 5543 c7 -3 16 -2 19 1 4 3 -2 6 -13 5 -11 0 -14 -3 -6 -6z"/>
<path d="M2040 5510 c-8 -5 -10 -10 -5 -10 6 0 17 5 25 10 8 5 11 10 5 10 -5
0 -17 -5 -25 -10z"/>
<path d="M1963 5472 c-17 -9 -36 -25 -43 -35 -9 -16 -9 -17 7 -8 21 13 80 61
73 60 -3 0 -19 -8 -37 -17z"/>
<path d="M6250 5464 c0 -11 40 -47 46 -41 2 2 -7 14 -21 27 -14 13 -25 19 -25
14z"/>
<path d="M1867 5363 c-4 -3 -7 -11 -7 -17 0 -6 5 -5 12 2 6 6 9 14 7 17 -3 3
-9 2 -12 -2z"/>
<path d="M1817 5283 c-4 -3 -7 -11 -7 -17 0 -6 5 -5 12 2 6 6 9 14 7 17 -3 3
-9 2 -12 -2z"/>
<path d="M6380 5279 c0 -9 36 -74 63 -114 15 -22 27 -43 27 -47 0 -4 15 -33
33 -65 19 -32 46 -80 61 -106 15 -27 30 -46 33 -43 3 3 1 11 -4 18 -6 7 -24
38 -40 68 -91 165 -173 303 -173 289z"/>
<path d="M1764 5202 c-40 -60 -47 -72 -39 -72 7 0 78 111 73 115 -1 2 -17 -18
-34 -43z"/>
<path d="M1699 5103 c-8 -10 -31 -43 -50 -73 -20 -30 -49 -75 -65 -100 -35
-55 -54 -90 -49 -90 4 0 49 65 90 129 6 9 26 40 46 71 46 71 51 80 46 80 -2 0
-10 -8 -18 -17z"/>
<path d="M6610 4873 c1 -4 12 -26 25 -48 13 -22 35 -60 48 -85 58 -109 97
-172 97 -156 0 5 -13 31 -30 58 -16 26 -30 51 -30 54 0 4 -20 40 -45 81 -25
40 -45 78 -45 83 0 5 -4 12 -10 15 -5 3 -10 3 -10 -2z"/>
<path d="M1503 4802 c-24 -33 -45 -72 -39 -72 8 0 68 91 64 96 -3 2 -13 -9
-25 -24z"/>
<path d="M3493 4815 c-17 -9 -46 -32 -63 -52 -35 -38 -121 -80 -243 -120 -100
-32 -112 -49 -98 -129 16 -86 36 -111 126 -161 44 -24 95 -59 113 -78 l32 -35
0 -165 c0 -189 -1 -184 89 -304 32 -42 88 -127 126 -189 68 -113 68 -114 69
-189 1 -81 14 -103 63 -103 14 0 42 -18 68 -41 l45 -42 0 -256 c0 -236 -2
-263 -24 -352 -13 -53 -38 -123 -56 -157 -30 -58 -31 -64 -23 -129 l8 -68 45
-3 c43 -3 48 0 97 49 68 68 103 152 103 247 1 101 16 188 39 221 12 16 25 49
30 73 5 24 14 57 21 73 11 27 9 35 -24 89 -69 114 -85 248 -44 356 14 38 20
74 19 117 -3 81 20 162 63 233 20 32 36 61 36 65 0 4 -9 14 -20 23 -11 10 -23
35 -28 57 -8 39 -9 40 -57 45 -60 6 -66 25 -17 55 19 12 35 31 38 47 7 28 60
88 110 123 29 20 67 21 111 4 30 -11 31 -54 2 -85 -22 -23 -19 -44 7 -44 56 0
164 -118 190 -208 31 -107 47 -147 81 -204 29 -49 41 -59 86 -76 90 -34 190
-46 260 -32 83 16 160 55 153 78 -33 116 -38 315 -12 426 9 38 30 97 46 131
29 61 87 125 114 125 24 0 64 -40 71 -70 9 -40 23 -46 46 -21 41 44 86 18 107
-60 7 -29 12 -34 36 -31 36 4 56 -14 56 -50 0 -18 11 -43 26 -61 23 -27 25
-38 20 -77 -3 -25 -22 -88 -42 -140 -38 -97 -39 -102 -47 -322 l-5 -107 -67
-115 c-71 -123 -74 -141 -30 -170 14 -9 34 -35 46 -59 12 -23 33 -56 46 -74
24 -32 24 -32 14 -165 -9 -113 -15 -147 -46 -226 -34 -89 -47 -183 -27 -196 5
-3 27 -8 49 -12 35 -5 44 -2 75 25 28 25 39 45 54 101 10 38 21 70 26 70 4 0
8 -51 8 -112 1 -76 5 -121 14 -137 29 -53 50 -51 -596 -51 -330 1 -603 -2
-606 -5 -3 -3 297 -5 666 -5 602 0 672 2 672 16 0 8 16 36 35 61 33 43 35 50
29 95 -6 46 -5 51 27 84 32 33 33 36 20 67 -30 75 -33 107 -11 134 25 33 26
59 0 73 -27 14 -26 57 2 143 21 66 22 68 3 99 -13 23 -18 48 -16 93 1 47 -2
67 -17 86 -32 40 -53 89 -48 107 3 9 19 25 36 34 27 15 30 22 30 66 0 27 7 69
16 95 15 45 15 48 -10 103 -24 52 -26 67 -26 201 0 135 -2 147 -26 196 -28 56
-71 107 -89 107 -6 0 -32 20 -58 45 -66 63 -196 122 -337 153 -25 6 -63 17
-85 24 -28 10 -85 14 -195 13 -131 -1 -166 -5 -228 -24 -61 -20 -79 -21 -120
-13 -26 6 -140 10 -254 10 -206 -1 -207 -1 -245 24 -21 14 -55 34 -75 43 -21
10 -38 21 -38 26 0 8 -47 65 -120 147 -21 24 -26 42 -10 42 5 0 25 14 45 31
47 42 47 74 -2 121 -28 26 -50 37 -81 41 -23 3 -64 19 -90 35 -119 76 -248
108 -309 77z"/>
<path d="M1426 4682 c-24 -35 -37 -68 -18 -46 14 15 54 84 49 84 -2 0 -16 -17
-31 -38z"/>
<path d="M1366 4588 l-17 -33 20 24 c18 20 27 41 18 41 -1 0 -11 -15 -21 -32z"/>
<path d="M1311 4404 c0 -11 3 -14 6 -6 3 7 2 16 -1 19 -3 4 -6 -2 -5 -13z"/>
<path d="M1340 4292 c0 -5 12 -19 27 -33 l27 -24 -23 33 c-23 32 -31 39 -31
24z"/>
<path d="M6783 4288 c-25 -32 -26 -40 -4 -26 12 7 21 18 21 25 0 16 -5 16 -17
1z"/>
<path d="M6725 4230 c-3 -5 -2 -10 4 -10 5 0 13 5 16 10 3 6 2 10 -4 10 -5 0
-13 -4 -16 -10z"/>
<path d="M1410 4225 c0 -7 70 -47 78 -43 5 2 -11 13 -35 25 -24 12 -43 21 -43
18z"/>
<path d="M6680 4200 c0 -5 5 -10 10 -10 6 0 10 5 10 10 0 6 -4 10 -10 10 -5 0
-10 -4 -10 -10z"/>
<path d="M5974 4180 c-13 -28 -40 -213 -49 -335 -8 -99 26 -579 52 -730 6 -39
6 -40 12 -10 3 17 4 271 1 565 -4 405 -8 529 -16 510z"/>
<path d="M1528 4163 c6 -2 18 -2 25 0 6 3 1 5 -13 5 -14 0 -19 -2 -12 -5z"/>
<path d="M5823 2163 c20 -2 54 -2 75 0 20 2 3 4 -38 4 -41 0 -58 -2 -37 -4z"/>
<path d="M6013 2163 c9 -2 23 -2 30 0 6 3 -1 5 -18 5 -16 0 -22 -2 -12 -5z"/>
<path d="M1421 2014 c-246 -54 -377 -237 -316 -440 31 -104 120 -161 339 -218
156 -41 176 -49 176 -75 0 -35 -35 -54 -97 -53 -73 1 -131 14 -265 59 -60 20
-110 34 -114 31 -3 -3 -18 -50 -34 -105 -16 -54 -34 -106 -40 -115 -14 -25
-15 -24 43 -66 61 -44 91 -55 207 -76 148 -26 189 -28 278 -16 156 22 274 96
337 212 26 47 29 63 29 143 1 69 -4 99 -19 130 -47 97 -152 157 -365 211 -74
19 -140 40 -147 47 -20 20 -6 44 31 57 27 8 50 6 132 -17 146 -39 196 -41 243
-9 81 57 83 153 4 228 -37 36 -92 58 -183 74 -91 17 -155 16 -239 -2z"/>
<path d="M2853 2004 c-77 -50 -77 -54 -83 -369 -6 -286 -10 -315 -48 -359 -46
-51 -170 -73 -235 -40 -99 50 -101 59 -107 449 l-5 330 -154 3 c-85 1 -158 -1
-163 -6 -5 -5 -9 -164 -8 -357 l1 -347 30 -80 c41 -104 123 -193 222 -237 175
-79 403 -75 569 10 65 33 155 130 190 205 39 84 48 179 46 483 -1 198 -3 217
-23 254 -43 82 -154 111 -232 61z"/>
<path d="M4464 2012 c-81 -28 -132 -77 -167 -159 -9 -21 -54 -135 -101 -253
-46 -118 -106 -269 -132 -335 -59 -146 -64 -212 -21 -268 53 -69 146 -87 223
-42 33 19 48 38 70 85 l28 60 187 0 187 0 21 -69 c12 -38 21 -76 21 -85 0 -29
27 -28 167 4 159 37 177 45 168 68 -16 39 -105 276 -144 387 -24 66 -47 129
-52 140 -15 36 -49 128 -85 229 -39 110 -55 138 -99 179 -74 70 -178 92 -271
59z m135 -485 c18 -64 29 -122 26 -127 -8 -13 -142 -13 -150 0 -5 9 5 54 52
219 20 72 32 57 72 -92z"/>
<path d="M5549 2015 c-94 -19 -176 -61 -237 -122 -71 -70 -95 -127 -94 -224 0
-89 19 -134 79 -190 56 -54 124 -84 275 -122 151 -39 178 -50 178 -75 -1 -41
-15 -47 -117 -47 -89 1 -110 5 -222 43 -68 24 -129 41 -135 39 -19 -8 -90
-258 -79 -276 23 -37 315 -111 435 -111 71 0 195 27 254 56 158 75 244 247
200 398 -25 85 -84 144 -189 189 -100 42 -131 52 -227 72 -120 25 -154 62 -85
91 34 14 44 13 155 -16 144 -36 183 -37 226 -8 48 33 60 66 56 150 -4 63 -103
131 -227 155 -84 16 -158 15 -246 -2z"/>
<path d="M6590 2011 c-41 -14 -68 -34 -105 -74 -45 -48 -58 -75 -129 -258 -43
-112 -85 -217 -92 -234 -48 -111 -113 -298 -119 -337 -12 -94 54 -169 154
-175 78 -5 122 22 165 102 l32 60 186 3 186 2 16 -54 c9 -31 19 -69 23 -87 3
-17 12 -33 20 -36 13 -5 200 34 281 59 32 10 34 12 27 47 -4 20 -28 92 -54
161 -27 69 -76 202 -110 295 -157 427 -153 417 -196 459 -79 77 -186 102 -285
67z m136 -476 c19 -69 32 -131 29 -136 -10 -15 -145 -11 -151 4 -3 8 9 65 27
128 29 106 46 146 56 135 3 -2 20 -61 39 -131z"/>
<path d="M3169 2016 c-2 -2 -4 -220 -3 -485 l1 -480 26 -40 c48 -72 126 -96
203 -62 77 35 102 84 103 207 1 48 6 85 13 92 7 7 43 12 93 12 277 0 445 131
462 360 15 197 -128 364 -335 391 -67 8 -555 13 -563 5z m536 -321 c47 -46 25
-124 -37 -140 -13 -3 -55 -5 -93 -3 l-70 3 -3 69 c-2 38 -1 75 2 83 4 9 28 13
91 13 78 0 88 -2 110 -25z"/>
</g>
</svg>
